<svg xmlns="http://www.w3.org/2000/svg" viewBox="0 0 16 16" id="Magic-Hat-2-Fill--Streamline-Mingcute-Fill" height="16" width="16">
  <desc>
    Magic Hat 2 Fill Streamline Icon: https://streamlinehq.com
  </desc>
  <g fill="none" fill-rule="evenodd">
    <path d="M16 0v16H0V0h16ZM8.395999999999999 15.505333333333333l-0.008 0.0013333333333333333 -0.047333333333333324 0.023333333333333334 -0.013333333333333332 0.0026666666666666666 -0.009333333333333332 -0.0026666666666666666 -0.047333333333333324 -0.023999999999999997c-0.006666666666666666 -0.002 -0.012666666666666666 0 -0.016 0.004l-0.0026666666666666666 0.006666666666666666 -0.011333333333333334 0.2853333333333333 0.003333333333333333 0.013333333333333332 0.006666666666666666 0.008666666666666666 0.06933333333333333 0.049333333333333326 0.009999999999999998 0.0026666666666666666 0.008 -0.0026666666666666666 0.06933333333333333 -0.049333333333333326 0.008 -0.010666666666666666 0.0026666666666666666 -0.011333333333333334 -0.011333333333333334 -0.2846666666666666c-0.0013333333333333333 -0.006666666666666666 -0.005999999999999999 -0.011333333333333334 -0.010666666666666666 -0.011999999999999999Zm0.176 -0.07533333333333334 -0.009333333333333332 0.0013333333333333333 -0.12266666666666666 0.062 -0.006666666666666666 0.006666666666666666 -0.002 0.007333333333333332 0.011999999999999999 0.2866666666666666 0.003333333333333333 0.008 0.005333333333333333 0.005333333333333333 0.134 0.06133333333333333c0.008 0.0026666666666666666 0.015333333333333332 0 0.019333333333333334 -0.005333333333333333l0.0026666666666666666 -0.009333333333333332 -0.02266666666666667 -0.4093333333333333c-0.002 -0.008 -0.006666666666666666 -0.013333333333333332 -0.013333333333333332 -0.014666666666666665Zm-0.4766666666666666 0.0013333333333333333a0.015333333333333332 0.015333333333333332 0 0 0 -0.018 0.004l-0.004 0.009333333333333332 -0.02266666666666667 0.4093333333333333c0 0.008 0.004666666666666666 0.013333333333333332 0.011333333333333334 0.016l0.009999999999999998 -0.0013333333333333333 0.134 -0.062 0.006666666666666666 -0.005333333333333333 0.002 -0.007333333333333332 0.011999999999999999 -0.2866666666666666 -0.002 -0.008 -0.006666666666666666 -0.006666666666666666 -0.12266666666666666 -0.06133333333333333Z" stroke-width="0.6667"></path>
    <path fill="oklch(0.9 0.076 70.697)" d="M8 4.666666666666666c-1.3566666666666667 0 -2.6166666666666663 0.23466666666666663 -3.562666666666667 0.6399999999999999 -0.47133333333333327 0.20199999999999999 -0.896 0.45999999999999996 -1.212 0.7799999999999999C2.9066666666666667 6.4093333333333335 2.6666666666666665 6.831999999999999 2.6666666666666665 7.333333333333333s0.24 0.9239999999999999 0.5586666666666666 1.2466666666666666c0.31599999999999995 0.31999999999999995 0.74 0.578 1.212 0.7799999999999999 0.946 0.4053333333333333 2.206 0.6399999999999999 3.562666666666667 0.6399999999999999s2.6166666666666663 -0.23466666666666663 3.562666666666667 -0.6399999999999999c0.47133333333333327 -0.20199999999999999 0.896 -0.45999999999999996 1.212 -0.7799999999999999 0.31866666666666665 -0.32266666666666666 0.5586666666666666 -0.7453333333333334 0.5586666666666666 -1.2466666666666666s-0.24 -0.9239999999999999 -0.5586666666666666 -1.2466666666666666c-0.31599999999999995 -0.31999999999999995 -0.74 -0.578 -1.212 -0.7799999999999999C10.616666666666667 4.9013333333333335 9.356666666666666 4.666666666666666 8 4.666666666666666Zm0 2c1.1046666666666667 0 2 0.29866666666666664 2 0.6666666666666666s-0.8953333333333333 0.6666666666666666 -2 0.6666666666666666 -2 -0.29866666666666664 -2 -0.6666666666666666 0.8953333333333333 -0.6666666666666666 2 -0.6666666666666666Zm-3.3693333333333335 3.4819999999999998c-0.04533333333333334 0.5293333333333333 -0.12666666666666665 1.0393333333333332 -0.21666666666666667 1.484l-0.078 0.3646666666666667 -0.07733333333333334 0.32666666666666666 -0.07333333333333333 0.282c-0.16133333333333333 0.6 0.09999999999999999 1.3313333333333333 0.8013333333333332 1.572 0.07333333333333333 0.024666666666666663 0.152 0.050666666666666665 0.23666666666666664 0.07733333333333334l0.2713333333333333 0.07866666666666666C6.119999999999999 14.505333333333333 6.98 14.666666666666666 8 14.666666666666666c1.02 0 1.88 -0.16133333333333333 2.505333333333333 -0.33266666666666667l0.2713333333333333 -0.07866666666666666c0.08466666666666667 -0.026666666666666665 0.16399999999999998 -0.05266666666666667 0.23666666666666664 -0.07733333333333334 0.7006666666666665 -0.24066666666666664 0.9626666666666666 -0.9726666666666667 0.8013333333333332 -1.572l-0.07333333333333333 -0.282 -0.07733333333333334 -0.32666666666666666 -0.078 -0.3646666666666667a13.344666666666665 13.344666666666665 0 0 1 -0.21666666666666667 -1.484C10.399999999999999 10.485333333333333 9.226666666666667 10.666666666666666 8 10.666666666666666c-1.2266666666666666 0 -2.3993333333333333 -0.18133333333333335 -3.3693333333333335 -0.518Zm2.041333333333333 -9.033333333333333 -0.1373333333333333 -0.2693333333333333c-0.07333333333333333 -0.13333333333333333 -0.11 -0.13466666666666666 -0.16999999999999998 -0.030666666666666665l-0.04466666666666667 0.08533333333333333 -0.026666666666666665 0.05333333333333333A3.7619999999999996 3.7619999999999996 0 0 1 5.023333333333333 2.433333333333333l-0.15133333333333332 0.09733333333333333c-0.17133333333333334 0.10533333333333333 -0.19066666666666665 0.1413333333333333 -0.08666666666666667 0.21533333333333332l0.08666666666666667 0.05666666666666667a3.7586666666666666 3.7586666666666666 0 0 1 1.3399999999999999 1.4153333333333333l0.1373333333333333 0.2693333333333333c0.07333333333333333 0.13333333333333333 0.11 0.13466666666666666 0.17066666666666666 0.030666666666666665l0.044 -0.08533333333333333 0.026666666666666665 -0.05333333333333333A3.7619999999999996 3.7619999999999996 0 0 1 7.859999999999999 2.8999999999999995l0.15133333333333332 -0.09733333333333333c0.21 -0.12866666666666665 0.19199999999999998 -0.15333333333333332 0 -0.27199999999999996a3.759333333333333 3.759333333333333 0 0 1 -1.3399999999999999 -1.4153333333333333Zm2.7686666666666664 2.1533333333333333 0.04666666666666667 -0.026a2.6686666666666667 2.6686666666666667 0 0 0 0.9846666666666667 -0.9086666666666666l0.134 -0.2293333333333333c0.05133333333333333 -0.07666666666666666 0.07866666666666666 -0.07066666666666666 0.12533333333333332 0.005333333333333333l0.04666666666666667 0.08199999999999999c0.20933333333333332 0.3866666666666666 0.5253333333333333 0.7173333333333334 0.9173333333333332 0.9626666666666666l0.15066666666666667 0.088c0.128 0.06999999999999999 0.154 0.09066666666666667 0.04666666666666667 0.15466666666666667l-0.04666666666666667 0.026666666666666665a2.6399999999999997 2.6399999999999997 0 0 0 -1.068 1.0506666666666666l-0.04666666666666667 0.08199999999999999c-0.04666666666666667 0.076 -0.07333333333333333 0.08199999999999999 -0.12533333333333332 0.005333333333333333l-0.049999999999999996 -0.08666666666666667a2.6126666666666667 2.6126666666666667 0 0 0 -0.9179999999999999 -0.9633333333333334l-0.15066666666666667 -0.088c-0.128 -0.06999999999999999 -0.15333333333333332 -0.09066666666666667 -0.04666666666666667 -0.15466666666666667Z" stroke-width="0.6667"></path>
  </g>
</svg>
