<svg xmlns="http://www.w3.org/2000/svg" fill="none" viewBox="0 0 24 24" id="Add-A-Photo-Fill--Streamline-Rounded-Fill-Material" height="24" width="24">
  <desc>
    Add A Photo Fill Streamline Icon: https://streamlinehq.com
  </desc>
  <path fill="oklch(0.9 0.076 70.697)" d="M20.2455 6.6502c-0.21365 0 -0.39135 -0.0719 -0.533 -0.21575 -0.14165 -0.14365 -0.2125 -0.32175 -0.2125 -0.53425V4.500195h-1.4c-0.2125 0 -0.3906 -0.072335 -0.53425 -0.217 -0.14385 -0.1445 -0.21575 -0.323665 -0.21575 -0.5375 0 -0.213665 0.0719 -0.391335 0.21575 -0.533 0.14365 -0.141665 0.32175 -0.2125 0.53425 -0.2125H19.5v-1.425c0 -0.2125 0.07235 -0.390665 0.217 -0.5345 0.1445 -0.143665 0.32365 -0.2155 0.5375 -0.2155 0.21365 0 0.39135 0.071835 0.533 0.2155 0.14165 0.143835 0.2125 0.322 0.2125 0.5345v1.425h1.425c0.2125 0 0.39065 0.072335 0.5345 0.217 0.14365 0.1445 0.2155 0.323665 0.2155 0.5375 0 0.213665 -0.07185 0.391335 -0.2155 0.533 -0.14385 0.141665 -0.322 0.2125 -0.5345 0.2125H21v1.400005c0 0.2125 -0.07235 0.3906 -0.217 0.53425 -0.1445 0.14385 -0.32365 0.21575 -0.5375 0.21575Zm-9.258 10.675c1.20835 0 2.22085 -0.40835 3.0375 -1.225 0.81665 -0.81665 1.225 -1.82915 1.225 -3.0375s-0.40835 -2.21665 -1.225 -3.025c-0.81665 -0.80835 -1.82915 -1.2125 -3.0375 -1.2125s-2.21665 0.40415 -3.025 1.2125c-0.80835 0.80835 -1.2125 1.81665 -1.2125 3.025 0 1.20835 0.40415 2.22085 1.2125 3.0375 0.80835 0.81665 1.81665 1.225 3.025 1.225Zm0 -1.5c-0.79165 0 -1.44585 -0.2625 -1.9625 -0.7875 -0.51665 -0.525 -0.775 -1.18335 -0.775 -1.975 0 -0.79165 0.25835 -1.44585 0.775 -1.9625 0.51665 -0.51665 1.17085 -0.775 1.9625 -0.775s1.45 0.25835 1.975 0.775c0.525 0.51665 0.7875 1.17085 0.7875 1.9625s-0.2625 1.45 -0.7875 1.975c-0.525 0.525 -1.18335 0.7875 -1.975 0.7875ZM2.5 21.0002c-0.4 0 -0.75 -0.15 -1.05 -0.45 -0.3 -0.3 -0.45 -0.65 -0.45 -1.05v-12.825c0 -0.38335 0.15 -0.72915 0.45 -1.0375 0.3 -0.30835 0.65 -0.4625 1.05 -0.4625h3.675l1.375 -1.650005c0.13335 -0.183335 0.3 -0.316665 0.5 -0.4 0.2 -0.083335 0.41665 -0.125 0.65 -0.125h6.4c0.2125 0 0.39065 0.071835 0.5345 0.2155 0.14365 0.143835 0.2155 0.322 0.2155 0.5345v1.125c0 0.312505 0.1094 0.578105 0.32825 0.796755 0.21865 0.21885 0.48425 0.32825 0.79675 0.32825H18v1.025c0 0.3125 0.1094 0.5781 0.32825 0.79675 0.21865 0.21885 0.48425 0.32825 0.79675 0.32825h1.125c0.2125 0 0.39065 0.07185 0.5345 0.2155 0.14365 0.14385 0.2155 0.322 0.2155 0.5345v10.6c0 0.4 -0.15415 0.75 -0.4625 1.05 -0.30835 0.3 -0.65415 0.45 -1.0375 0.45H2.5Z" stroke-width="0.5"></path>
</svg>