<svg xmlns="http://www.w3.org/2000/svg" fill="none" viewBox="0 0 24 24" id="Style-Fill--Streamline-Rounded-Fill-Material" height="24" width="24">
  <desc>
    Style Fill Streamline Icon: https://streamlinehq.com
  </desc>
  <path fill="oklch(0.9 0.076 70.697)" d="m3.799965 20.3751 -0.575 -0.175c-0.53333 -0.2333 -0.89583 -0.6333 -1.0875 -1.2 -0.191665 -0.56665 -0.1375 -1.125 0.1625 -1.675l1.5 -3.4v6.45Zm4.649985 1.95c-0.56665 0 -1.05 -0.2 -1.45 -0.6 -0.4 -0.4 -0.6 -0.8833 -0.6 -1.45v-5.175l2.3 6.55c0.03335 0.13335 0.08335 0.25 0.15 0.35 0.0667 0.1 0.15 0.20835 0.25 0.325h-0.65Zm4.7 -0.6c-0.35 0.15 -0.71665 0.1167 -1.1 -0.1 -0.3833 -0.21665 -0.6583 -0.51665 -0.825 -0.9l-4.775 -12.975c-0.16665 -0.3833 -0.15 -0.7583 0.05 -1.125 0.2 -0.36665 0.50835 -0.6333 0.925 -0.8l7.95 -2.874985c0.38335 -0.13333 0.75835 -0.1 1.125 0.1 0.3667 0.2 0.63335 0.5 0.8 0.9l4.775 12.824985c0.1167 0.4167 0.0917 0.825 -0.075 1.225 -0.16665 0.4 -0.4583 0.675 -0.875 0.825l-7.975 2.9Zm-2.05 -12.375c0.2 0 0.375 -0.075 0.525 -0.225 0.15 -0.15 0.225 -0.325 0.225 -0.525s-0.075 -0.375 -0.225 -0.525c-0.15 -0.15 -0.325 -0.225 -0.525 -0.225s-0.375 0.075 -0.525 0.225c-0.15 0.15 -0.225 0.325 -0.225 0.525s0.075 0.375 0.225 0.525c0.15 0.15 0.325 0.225 0.525 0.225Z" stroke-width="0.5"></path>
</svg>